<?xml version="1.0" standalone="no"?>
<!DOCTYPE svg PUBLIC "-//W3C//DTD SVG 20010904//EN"
 "http://www.w3.org/TR/2001/REC-SVG-20010904/DTD/svg10.dtd">
<svg version="1.0" xmlns="http://www.w3.org/2000/svg"
 width="260.000000pt" height="260.000000pt" viewBox="0 0 260.000000 260.000000"
 preserveAspectRatio="xMidYMid meet">
<metadata>
Created by potrace 1.11, written by Peter Selinger 2001-2013
</metadata>
<g transform="translate(0.000000,260.000000) scale(0.100000,-0.100000)"
fill="#000000" stroke="none">
<path d="M1176 2459 c-395 -38 -749 -289 -921 -652 -146 -307 -146 -687 0
-994 239 -505 796 -760 1350 -617 192 50 372 154 515 297 448 447 448 1184 -1
1635 -188 189 -427 302 -701 332 -107 11 -114 11 -242 -1z m-330 -500 c27 -11
77 -35 109 -55 l59 -35 93 17 c106 19 335 16 433 -6 55 -12 55 -12 114 24 75
45 153 75 208 78 l43 3 17 -50 c19 -56 23 -162 8 -216 -9 -34 -7 -41 29 -95
54 -82 74 -157 73 -275 -2 -231 -88 -391 -255 -472 -70 -34 -189 -67 -242 -67
l-27 0 26 -30 c46 -55 56 -114 56 -330 0 -138 4 -200 12 -208 16 -16 9 -21
-56 -38 -134 -35 -359 -35 -491 0 -41 10 -49 16 -46 32 2 10 6 71 8 135 l4
117 -89 -6 c-162 -9 -244 34 -307 163 -35 70 -55 94 -134 162 -41 36 -35 53
20 53 53 0 110 -31 151 -81 113 -140 132 -153 233 -152 97 1 121 12 135 64 6
23 22 59 36 80 l24 39 -27 0 c-43 0 -153 30 -220 61 -80 35 -167 117 -204 191
-96 191 -85 455 24 584 23 27 25 35 17 65 -21 72 -7 227 23 267 13 16 68 8
143 -19z"/>
<path d="M560 820 c0 -5 7 -10 15 -10 8 0 15 5 15 10 0 6 -7 10 -15 10 -8 0
-15 -4 -15 -10z"/>
<path d="M612 779 c2 -7 10 -15 17 -17 8 -3 12 1 9 9 -2 7 -10 15 -17 17 -8 3
-12 -1 -9 -9z"/>
<path d="M650 721 c0 -5 6 -14 14 -20 16 -13 32 2 21 19 -8 12 -35 13 -35 1z"/>
<path d="M710 655 c0 -16 27 -32 37 -21 7 7 -16 36 -28 36 -5 0 -9 -7 -9 -15z"/>
<path d="M786 611 c-9 -15 23 -36 36 -23 5 5 7 15 4 21 -9 13 -33 14 -40 2z"/>
<path d="M965 600 c-8 -12 20 -24 35 -15 5 3 10 10 10 16 0 12 -37 12 -45 -1z"/>
<path d="M877 594 c-10 -11 3 -24 24 -24 10 0 19 7 19 15 0 15 -31 21 -43 9z"/>
</g>
</svg>
